<?xml version="1.0" encoding="utf-8"?>
<!DOCTYPE svg PUBLIC "-//W3C//DTD SVG 1.1//EN" "http://www.w3.org/Graphics/SVG/1.1/DTD/svg11.dtd">
<svg version="1.1" xmlns="http://www.w3.org/2000/svg" xmlns:xlink="http://www.w3.org/1999/xlink" x="0px" y="0px"
	 viewBox="0 0 500 500" enable-background="new 0 0 500 500" xml:space="preserve">
<g id="PageBackground">
	<rect fill="#ACB6C6" width="500" height="144.7"/>
	<rect x="45" y="198" fill="#ACB6C6" width="432" height="45"/>
	<rect x="45" y="360" fill="#ACB6C6" width="331.4" height="45"/>
	<rect x="45.2" y="279" fill="#ACB6C6" width="404.8" height="45"/>
	<rect x="44.8" y="441" fill="#ACB6C6" width="423.3" height="45"/>
</g>
<g id="Banner">
	<polygon opacity="0.85" fill="#141628" points="438.1,0 64.5,0 500,439.8 500,62.5 	"/>
	<polygon fill="#FFFFFF" points="121.5,0 96.8,0 109,12.3 	"/>
		<rect x="131.8" y="47.4" transform="matrix(-0.7036 -0.7106 0.7106 -0.7036 257.4412 228.1767)" fill="#FFFFFF" width="89" height="26"/>
	
		<rect x="220.5" y="136.9" transform="matrix(-0.7036 -0.7106 0.7106 -0.7036 344.8544 443.7041)" fill="#FFFFFF" width="89" height="26"/>
	
		<rect x="309.1" y="226.5" transform="matrix(-0.7036 -0.7106 0.7106 -0.7036 432.2675 659.2314)" fill="#FFFFFF" width="89" height="26"/>
	
		<rect x="397.8" y="316" transform="matrix(-0.7036 -0.7106 0.7106 -0.7036 519.6807 874.7589)" fill="#FFFFFF" width="89" height="26"/>
	<polygon fill="#FFFFFF" points="484.8,390.4 500,405.8 500,375.3 	"/>
	<polygon fill="#FFFFFF" points="446.2,33.1 413.4,0 376.9,0 427.7,51.4 	"/>
	<polygon fill="#FFFFFF" points="472.2,59.4 453.8,77.7 500,124.4 500,87.4 	"/>
</g>
</svg>
