<?xml version="1.0" encoding="utf-8"?>
<!DOCTYPE svg PUBLIC "-//W3C//DTD SVG 1.1//EN" "http://www.w3.org/Graphics/SVG/1.1/DTD/svg11.dtd">
<svg version="1.1" xmlns="http://www.w3.org/2000/svg" xmlns:xlink="http://www.w3.org/1999/xlink" x="0px" y="0px"
	 viewBox="0 0 500 500" enable-background="new 0 0 500 500" xml:space="preserve">
<g id="White">
	<rect fill="#FFFFFF" width="500" height="500"/>
</g>
<g id="PageBackground">
	<rect fill="#ACB6C6" width="500" height="144.7"/>
	<rect x="45" y="198" fill="#ACB6C6" width="432" height="45"/>
	<rect x="45" y="360" fill="#ACB6C6" width="331.4" height="45"/>
	<rect x="45.2" y="279" fill="#ACB6C6" width="404.8" height="45"/>
	<rect x="44.8" y="441" fill="#ACB6C6" width="423.3" height="45"/>
</g>
<g id="Banner">
	<g>
		<polygon opacity="0.85" fill="#141628" points="62.7,0 440.8,0 0,439.8 0,62.5 		"/>
		<polygon fill="#FFFFFF" points="383.1,0 408.1,0 395.7,12.3 		"/>
		<polygon fill="#FFFFFF" points="368.6,37.9 305.3,101.2 286.6,82.9 349.9,19.6 		"/>
		<polygon fill="#FFFFFF" points="278.9,127.5 215.5,190.7 196.8,172.4 260.2,109.2 		"/>
		<polygon fill="#FFFFFF" points="189.2,217 125.8,280.2 107.1,261.9 170.5,198.7 		"/>
		<polygon fill="#FFFFFF" points="99.5,306.5 36.1,369.8 17.4,351.5 80.8,288.2 		"/>
		<polygon fill="#FFFFFF" points="15.4,390.4 0,405.8 0,375.3 		"/>
		<polygon fill="#FFFFFF" points="54.4,33.1 87.6,0 124.6,0 73.1,51.4 		"/>
		<polygon fill="#FFFFFF" points="28.1,59.4 46.8,77.7 0,124.4 0,87.4 		"/>
	</g>
</g>
</svg>
